<svg xmlns="http://www.w3.org/2000/svg" xmlns:xlink="http://www.w3.org/1999/xlink" width="633" zoomAndPan="magnify" viewBox="0 0 474.75 111.749996" height="149" preserveAspectRatio="xMidYMid meet" version="1.2"><defs><clipPath id="59ec0ecf74"><path d="M 0.40625 28.289062 L 9.46875 28.289062 L 9.46875 37.351562 L 0.40625 37.351562 Z M 0.40625 28.289062 "/></clipPath><clipPath id="14b25e2e53"><path d="M 2.648438 28.289062 L 7.222656 28.289062 C 7.820312 28.289062 8.390625 28.523438 8.8125 28.945312 C 9.230469 29.367188 9.46875 29.9375 9.46875 30.53125 L 9.46875 35.105469 C 9.46875 35.703125 9.230469 36.273438 8.8125 36.695312 C 8.390625 37.113281 7.820312 37.351562 7.222656 37.351562 L 2.648438 37.351562 C 2.054688 37.351562 1.484375 37.113281 1.0625 36.695312 C 0.640625 36.273438 0.40625 35.703125 0.40625 35.105469 L 0.40625 30.53125 C 0.40625 29.9375 0.640625 29.367188 1.0625 28.945312 C 1.484375 28.523438 2.054688 28.289062 2.648438 28.289062 Z M 2.648438 28.289062 "/></clipPath><clipPath id="91383580b3"><path d="M 34.480469 28.289062 L 43.546875 28.289062 L 43.546875 37.351562 L 34.480469 37.351562 Z M 34.480469 28.289062 "/></clipPath><clipPath id="68b980b5e2"><path d="M 36.726562 28.289062 L 41.300781 28.289062 C 41.894531 28.289062 42.46875 28.523438 42.886719 28.945312 C 43.308594 29.367188 43.546875 29.9375 43.546875 30.53125 L 43.546875 35.105469 C 43.546875 35.703125 43.308594 36.273438 42.886719 36.695312 C 42.46875 37.113281 41.894531 37.351562 41.300781 37.351562 L 36.726562 37.351562 C 36.132812 37.351562 35.5625 37.113281 35.140625 36.695312 C 34.71875 36.273438 34.480469 35.703125 34.480469 35.105469 L 34.480469 30.53125 C 34.480469 29.9375 34.71875 29.367188 35.140625 28.945312 C 35.5625 28.523438 36.132812 28.289062 36.726562 28.289062 Z M 36.726562 28.289062 "/></clipPath><clipPath id="5ee3651442"><path d="M 0.40625 41.839844 L 9.46875 41.839844 L 9.46875 50.90625 L 0.40625 50.90625 Z M 0.40625 41.839844 "/></clipPath><clipPath id="7df451676c"><path d="M 2.648438 41.839844 L 7.222656 41.839844 C 7.820312 41.839844 8.390625 42.078125 8.8125 42.5 C 9.230469 42.917969 9.46875 43.492188 9.46875 44.085938 L 9.46875 48.660156 C 9.46875 49.253906 9.230469 49.828125 8.8125 50.246094 C 8.390625 50.667969 7.820312 50.90625 7.222656 50.90625 L 2.648438 50.90625 C 2.054688 50.90625 1.484375 50.667969 1.0625 50.246094 C 0.640625 49.828125 0.40625 49.253906 0.40625 48.660156 L 0.40625 44.085938 C 0.40625 43.492188 0.640625 42.917969 1.0625 42.5 C 1.484375 42.078125 2.054688 41.839844 2.648438 41.839844 Z M 2.648438 41.839844 "/></clipPath><clipPath id="14eb6dba1e"><path d="M 19.242188 68.324219 L 28.304688 68.324219 L 28.304688 77.390625 L 19.242188 77.390625 Z M 19.242188 68.324219 "/></clipPath><clipPath id="03eab956d6"><path d="M 21.488281 68.324219 L 26.0625 68.324219 C 26.65625 68.324219 27.226562 68.5625 27.648438 68.984375 C 28.070312 69.402344 28.304688 69.976562 28.304688 70.570312 L 28.304688 75.144531 C 28.304688 75.738281 28.070312 76.308594 27.648438 76.730469 C 27.226562 77.152344 26.65625 77.390625 26.0625 77.390625 L 21.488281 77.390625 C 20.890625 77.390625 20.320312 77.152344 19.898438 76.730469 C 19.480469 76.308594 19.242188 75.738281 19.242188 75.144531 L 19.242188 70.570312 C 19.242188 69.976562 19.480469 69.402344 19.898438 68.984375 C 20.320312 68.5625 20.890625 68.324219 21.488281 68.324219 Z M 21.488281 68.324219 "/></clipPath><clipPath id="e5b1ee2ec4"><path d="M 0.40625 68.324219 L 9.46875 68.324219 L 9.46875 77.390625 L 0.40625 77.390625 Z M 0.40625 68.324219 "/></clipPath><clipPath id="eb1da8f8d7"><path d="M 2.648438 68.324219 L 7.222656 68.324219 C 7.820312 68.324219 8.390625 68.5625 8.8125 68.984375 C 9.230469 69.402344 9.46875 69.976562 9.46875 70.570312 L 9.46875 75.144531 C 9.46875 75.738281 9.230469 76.308594 8.8125 76.730469 C 8.390625 77.152344 7.820312 77.390625 7.222656 77.390625 L 2.648438 77.390625 C 2.054688 77.390625 1.484375 77.152344 1.0625 76.730469 C 0.640625 76.308594 0.40625 75.738281 0.40625 75.144531 L 0.40625 70.570312 C 0.40625 69.976562 0.640625 69.402344 1.0625 68.984375 C 1.484375 68.5625 2.054688 68.324219 2.648438 68.324219 Z M 2.648438 68.324219 "/></clipPath><clipPath id="150bde2334"><path d="M 19.242188 41.839844 L 28.304688 41.839844 L 28.304688 50.90625 L 19.242188 50.90625 Z M 19.242188 41.839844 "/></clipPath><clipPath id="c4b540dfe9"><path d="M 21.488281 41.839844 L 26.0625 41.839844 C 26.65625 41.839844 27.226562 42.078125 27.648438 42.5 C 28.070312 42.917969 28.304688 43.492188 28.304688 44.085938 L 28.304688 48.660156 C 28.304688 49.253906 28.070312 49.828125 27.648438 50.246094 C 27.226562 50.667969 26.65625 50.90625 26.0625 50.90625 L 21.488281 50.90625 C 20.890625 50.90625 20.320312 50.667969 19.898438 50.246094 C 19.480469 49.828125 19.242188 49.253906 19.242188 48.660156 L 19.242188 44.085938 C 19.242188 43.492188 19.480469 42.917969 19.898438 42.5 C 20.320312 42.078125 20.890625 41.839844 21.488281 41.839844 Z M 21.488281 41.839844 "/></clipPath><clipPath id="8608ccaf91"><path d="M 0.40625 55.625 L 9.46875 55.625 L 9.46875 64.6875 L 0.40625 64.6875 Z M 0.40625 55.625 "/></clipPath><clipPath id="4c71bad323"><path d="M 2.648438 55.625 L 7.222656 55.625 C 7.820312 55.625 8.390625 55.863281 8.8125 56.28125 C 9.230469 56.703125 9.46875 57.273438 9.46875 57.871094 L 9.46875 62.445312 C 9.46875 63.039062 9.230469 63.609375 8.8125 64.03125 C 8.390625 64.453125 7.820312 64.6875 7.222656 64.6875 L 2.648438 64.6875 C 2.054688 64.6875 1.484375 64.453125 1.0625 64.03125 C 0.640625 63.609375 0.40625 63.039062 0.40625 62.445312 L 0.40625 57.871094 C 0.40625 57.273438 0.640625 56.703125 1.0625 56.28125 C 1.484375 55.863281 2.054688 55.625 2.648438 55.625 Z M 2.648438 55.625 "/></clipPath><clipPath id="887eed680d"><path d="M 19.242188 55.625 L 28.304688 55.625 L 28.304688 64.6875 L 19.242188 64.6875 Z M 19.242188 55.625 "/></clipPath><clipPath id="4bb8e3210d"><path d="M 21.488281 55.625 L 26.0625 55.625 C 26.65625 55.625 27.226562 55.863281 27.648438 56.28125 C 28.070312 56.703125 28.304688 57.273438 28.304688 57.871094 L 28.304688 62.445312 C 28.304688 63.039062 28.070312 63.609375 27.648438 64.03125 C 27.226562 64.453125 26.65625 64.6875 26.0625 64.6875 L 21.488281 64.6875 C 20.890625 64.6875 20.320312 64.453125 19.898438 64.03125 C 19.480469 63.609375 19.242188 63.039062 19.242188 62.445312 L 19.242188 57.871094 C 19.242188 57.273438 19.480469 56.703125 19.898438 56.28125 C 20.320312 55.863281 20.890625 55.625 21.488281 55.625 Z M 21.488281 55.625 "/></clipPath></defs><g id="7d55b585bf"><g clip-rule="nonzero" clip-path="url(#59ec0ecf74)"><g clip-rule="nonzero" clip-path="url(#14b25e2e53)"><path style=" stroke:none;fill-rule:nonzero;fill:#ffdd30;fill-opacity:1;" d="M 0.40625 28.289062 L 9.46875 28.289062 L 9.46875 37.351562 L 0.40625 37.351562 Z M 0.40625 28.289062 "/></g></g><g style="fill:#ffffff;fill-opacity:1;"><g transform="translate(53.274148, 79.571977)"><path style="stroke:none" d="M 52.390625 0.0625 C 48.242188 0.0625 46.171875 -0.398438 46.171875 -1.328125 L 44.703125 -29.328125 L 36.171875 -0.984375 C 35.992188 -0.421875 34.410156 -0.140625 31.421875 -0.140625 C 28.441406 -0.140625 26.90625 -0.394531 26.8125 -0.90625 L 18.015625 -29.609375 L 17.046875 -1.75 C 16.992188 -1.050781 16.101562 -0.570312 14.375 -0.3125 C 12.65625 -0.0625 11.222656 0.0625 10.078125 0.0625 C 8.941406 0.0625 7.84375 -0.00390625 6.78125 -0.140625 C 4.539062 -0.460938 3.445312 -1.046875 3.5 -1.890625 L 5.09375 -47.28125 C 5.09375 -48.394531 7.9375 -48.953125 13.625 -48.953125 C 15.300781 -48.953125 17.347656 -48.820312 19.765625 -48.5625 C 22.179688 -48.3125 23.53125 -47.816406 23.8125 -47.078125 L 31.640625 -25.078125 L 38.484375 -47.140625 C 38.898438 -48.347656 42.113281 -48.953125 48.125 -48.953125 C 49.84375 -48.953125 51.898438 -48.820312 54.296875 -48.5625 C 56.703125 -48.3125 57.90625 -47.863281 57.90625 -47.21875 L 59.921875 -1.390625 C 59.921875 -0.878906 59.015625 -0.507812 57.203125 -0.28125 C 55.390625 -0.0507812 53.785156 0.0625 52.390625 0.0625 Z M 52.390625 0.0625 "/></g></g><g style="fill:#ffffff;fill-opacity:1;"><g transform="translate(116.618966, 79.571977)"><path style="stroke:none" d="M 7.546875 -25.359375 C 6.242188 -27.679688 5.59375 -29.578125 5.59375 -31.046875 C 5.59375 -32.515625 5.988281 -33.457031 6.78125 -33.875 C 9.425781 -35.039062 13.066406 -35.625 17.703125 -35.625 C 22.335938 -35.625 25.609375 -34.539062 27.515625 -32.375 C 29.421875 -30.207031 30.375 -27.003906 30.375 -22.765625 L 30.375 -11.734375 L 32.75 -11.734375 C 33.539062 -11.734375 34.15625 -11.265625 34.59375 -10.328125 C 35.039062 -9.398438 35.265625 -8.117188 35.265625 -6.484375 C 35.265625 -4.859375 34.859375 -3.253906 34.046875 -1.671875 C 33.234375 -0.0859375 32.128906 0.703125 30.734375 0.703125 C 28.210938 0.703125 26.1875 0.0234375 24.65625 -1.328125 C 23.957031 -1.890625 23.421875 -2.566406 23.046875 -3.359375 C 20.898438 -0.648438 17.570312 0.703125 13.0625 0.703125 C 9.664062 0.703125 6.800781 -0.503906 4.46875 -2.921875 C 2.144531 -5.347656 0.984375 -8.21875 0.984375 -11.53125 C 0.984375 -19.113281 5.519531 -22.90625 14.59375 -22.90625 L 18.4375 -22.90625 L 18.4375 -23.609375 C 18.4375 -24.816406 18.238281 -25.59375 17.84375 -25.9375 C 17.445312 -26.289062 16.53125 -26.46875 15.09375 -26.46875 C 13.320312 -26.46875 10.804688 -26.097656 7.546875 -25.359375 Z M 13.125 -12.5 C 13.125 -11.476562 13.40625 -10.695312 13.96875 -10.15625 C 14.53125 -9.625 15.238281 -9.359375 16.09375 -9.359375 C 16.957031 -9.359375 17.738281 -9.707031 18.4375 -10.40625 L 18.4375 -15.78125 L 16.484375 -15.78125 C 14.242188 -15.78125 13.125 -14.6875 13.125 -12.5 Z M 13.125 -12.5 "/></g></g><g style="fill:#ffffff;fill-opacity:1;"><g transform="translate(152.726212, 79.571977)"><path style="stroke:none" d="M 18.15625 12.71875 C 18.15625 13.039062 16.164062 13.203125 12.1875 13.203125 C 8.207031 13.203125 6.21875 13.039062 6.21875 12.71875 L 6.21875 -23.265625 L 3.84375 -23.265625 C 2.726562 -23.265625 1.957031 -24.285156 1.53125 -26.328125 C 1.394531 -26.984375 1.328125 -27.820312 1.328125 -28.84375 C 1.328125 -29.863281 1.65625 -31.078125 2.3125 -32.484375 C 3.238281 -34.523438 4.726562 -35.546875 6.78125 -35.546875 C 8.125 -35.546875 9.363281 -35.234375 10.5 -34.609375 C 11.644531 -33.984375 12.4375 -33.398438 12.875 -32.859375 C 13.320312 -32.328125 13.546875 -32.015625 13.546875 -31.921875 C 16.671875 -34.335938 20.046875 -35.546875 23.671875 -35.546875 C 27.304688 -35.546875 30.425781 -34.132812 33.03125 -31.3125 C 35.644531 -28.5 36.953125 -24.144531 36.953125 -18.25 C 36.953125 -12.363281 35.644531 -7.800781 33.03125 -4.5625 C 30.425781 -1.332031 27.125 0.28125 23.125 0.28125 C 21.300781 0.28125 19.644531 0.1875 18.15625 0 Z M 21.015625 -23.328125 C 20.222656 -23.328125 19.457031 -23.070312 18.71875 -22.5625 L 18.71875 -10.203125 C 19.507812 -10.109375 20.148438 -10.0625 20.640625 -10.0625 C 21.128906 -10.0625 21.515625 -10.0625 21.796875 -10.0625 C 23.703125 -10.25 24.65625 -12.691406 24.65625 -17.390625 C 24.65625 -21.347656 23.441406 -23.328125 21.015625 -23.328125 Z M 21.015625 -23.328125 "/></g></g><g style="fill:#ffffff;fill-opacity:1;"><g transform="translate(191.487369, 79.571977)"><path style="stroke:none" d="M 4.609375 -12.578125 C 8.378906 -10.296875 11.359375 -9.15625 13.546875 -9.15625 C 14.941406 -9.15625 15.640625 -9.640625 15.640625 -10.609375 C 15.640625 -11.304688 14.429688 -12.21875 12.015625 -13.34375 C 6.191406 -15.71875 3.28125 -19.601562 3.28125 -25 C 3.28125 -28.445312 4.535156 -31.078125 7.046875 -32.890625 C 9.566406 -34.710938 12.582031 -35.625 16.09375 -35.625 C 19.613281 -35.625 22.59375 -35.25 25.03125 -34.5 C 27.476562 -33.757812 28.703125 -32.78125 28.703125 -31.5625 C 28.703125 -30.539062 28.203125 -29.191406 27.203125 -27.515625 C 26.203125 -25.835938 25.515625 -24.929688 25.140625 -24.796875 C 23.140625 -25.910156 20.972656 -26.46875 18.640625 -26.46875 C 17.390625 -26.46875 16.765625 -26.023438 16.765625 -25.140625 C 16.765625 -24.585938 17.007812 -24.113281 17.5 -23.71875 C 17.988281 -23.320312 18.882812 -22.832031 20.1875 -22.25 C 21.488281 -21.664062 22.566406 -21.140625 23.421875 -20.671875 C 24.285156 -20.203125 25.253906 -19.550781 26.328125 -18.71875 C 28.566406 -16.945312 29.6875 -14.640625 29.6875 -11.796875 C 29.6875 -8.078125 28.453125 -5.0625 25.984375 -2.75 C 23.515625 -0.445312 19.789062 0.703125 14.8125 0.703125 C 11.5 0.703125 8.492188 0.144531 5.796875 -0.96875 C 3.097656 -2.09375 1.75 -3.632812 1.75 -5.59375 C 1.75 -6.894531 2.0625 -8.265625 2.6875 -9.703125 C 3.3125 -11.148438 3.953125 -12.109375 4.609375 -12.578125 Z M 4.609375 -12.578125 "/></g></g><g style="fill:#9b59b6;fill-opacity:1;"><g transform="translate(222.921956, 79.571977)"><path style="stroke:none" d="M 52.390625 0.0625 C 48.242188 0.0625 46.171875 -0.398438 46.171875 -1.328125 L 44.703125 -29.328125 L 36.171875 -0.984375 C 35.992188 -0.421875 34.410156 -0.140625 31.421875 -0.140625 C 28.441406 -0.140625 26.90625 -0.394531 26.8125 -0.90625 L 18.015625 -29.609375 L 17.046875 -1.75 C 16.992188 -1.050781 16.101562 -0.570312 14.375 -0.3125 C 12.65625 -0.0625 11.222656 0.0625 10.078125 0.0625 C 8.941406 0.0625 7.84375 -0.00390625 6.78125 -0.140625 C 4.539062 -0.460938 3.445312 -1.046875 3.5 -1.890625 L 5.09375 -47.28125 C 5.09375 -48.394531 7.9375 -48.953125 13.625 -48.953125 C 15.300781 -48.953125 17.347656 -48.820312 19.765625 -48.5625 C 22.179688 -48.3125 23.53125 -47.816406 23.8125 -47.078125 L 31.640625 -25.078125 L 38.484375 -47.140625 C 38.898438 -48.347656 42.113281 -48.953125 48.125 -48.953125 C 49.84375 -48.953125 51.898438 -48.820312 54.296875 -48.5625 C 56.703125 -48.3125 57.90625 -47.863281 57.90625 -47.21875 L 59.921875 -1.390625 C 59.921875 -0.878906 59.015625 -0.507812 57.203125 -0.28125 C 55.390625 -0.0507812 53.785156 0.0625 52.390625 0.0625 Z M 52.390625 0.0625 "/></g></g><g style="fill:#9b59b6;fill-opacity:1;"><g transform="translate(286.266774, 79.571977)"><path style="stroke:none" d="M 2.796875 -34.5 C 2.796875 -35.007812 4.796875 -35.265625 8.796875 -35.265625 C 12.804688 -35.265625 14.8125 -35.007812 14.8125 -34.5 L 14.8125 -14.109375 C 14.8125 -11.773438 15.554688 -10.609375 17.046875 -10.609375 C 18.160156 -10.609375 19.414062 -11.097656 20.8125 -12.078125 L 20.8125 -34.5 C 20.8125 -34.96875 22.789062 -35.203125 26.75 -35.203125 C 30.707031 -35.203125 32.6875 -34.96875 32.6875 -34.5 L 32.6875 -11.59375 L 34.5 -11.59375 C 36.082031 -11.59375 36.875 -10.078125 36.875 -7.046875 C 36.875 -5.515625 36.550781 -3.957031 35.90625 -2.375 C 34.96875 -0.320312 33.707031 0.703125 32.125 0.703125 C 29.007812 0.703125 26.707031 -0.578125 25.21875 -3.140625 L 25.140625 -3.078125 C 22.304688 -0.554688 19.257812 0.703125 16 0.703125 C 11.476562 0.703125 8.144531 -0.425781 6 -2.6875 C 3.863281 -4.945312 2.796875 -8.6875 2.796875 -13.90625 Z M 2.796875 -34.5 "/></g></g><g style="fill:#9b59b6;fill-opacity:1;"><g transform="translate(324.259702, 79.571977)"><path style="stroke:none" d="M 4.609375 -12.578125 C 8.378906 -10.296875 11.359375 -9.15625 13.546875 -9.15625 C 14.941406 -9.15625 15.640625 -9.640625 15.640625 -10.609375 C 15.640625 -11.304688 14.429688 -12.21875 12.015625 -13.34375 C 6.191406 -15.71875 3.28125 -19.601562 3.28125 -25 C 3.28125 -28.445312 4.535156 -31.078125 7.046875 -32.890625 C 9.566406 -34.710938 12.582031 -35.625 16.09375 -35.625 C 19.613281 -35.625 22.59375 -35.25 25.03125 -34.5 C 27.476562 -33.757812 28.703125 -32.78125 28.703125 -31.5625 C 28.703125 -30.539062 28.203125 -29.191406 27.203125 -27.515625 C 26.203125 -25.835938 25.515625 -24.929688 25.140625 -24.796875 C 23.140625 -25.910156 20.972656 -26.46875 18.640625 -26.46875 C 17.390625 -26.46875 16.765625 -26.023438 16.765625 -25.140625 C 16.765625 -24.585938 17.007812 -24.113281 17.5 -23.71875 C 17.988281 -23.320312 18.882812 -22.832031 20.1875 -22.25 C 21.488281 -21.664062 22.566406 -21.140625 23.421875 -20.671875 C 24.285156 -20.203125 25.253906 -19.550781 26.328125 -18.71875 C 28.566406 -16.945312 29.6875 -14.640625 29.6875 -11.796875 C 29.6875 -8.078125 28.453125 -5.0625 25.984375 -2.75 C 23.515625 -0.445312 19.789062 0.703125 14.8125 0.703125 C 11.5 0.703125 8.492188 0.144531 5.796875 -0.96875 C 3.097656 -2.09375 1.75 -3.632812 1.75 -5.59375 C 1.75 -6.894531 2.0625 -8.265625 2.6875 -9.703125 C 3.3125 -11.148438 3.953125 -12.109375 4.609375 -12.578125 Z M 4.609375 -12.578125 "/></g></g><g style="fill:#9b59b6;fill-opacity:1;"><g transform="translate(355.687675, 79.571977)"><path style="stroke:none" d="M 15.921875 -0.421875 C 15.921875 -0.046875 13.789062 0.140625 9.53125 0.140625 C 5.269531 0.140625 3.140625 -0.0195312 3.140625 -0.34375 L 3.140625 -34.640625 C 3.140625 -34.960938 5.269531 -35.125 9.53125 -35.125 C 13.789062 -35.125 15.921875 -34.988281 15.921875 -34.71875 Z M 15.921875 -38.828125 C 15.921875 -38.503906 13.789062 -38.34375 9.53125 -38.34375 C 5.269531 -38.34375 3.140625 -38.484375 3.140625 -38.765625 L 3.140625 -48.828125 C 3.140625 -49.285156 5.269531 -49.515625 9.53125 -49.515625 C 13.789062 -49.515625 15.921875 -49.375 15.921875 -49.09375 Z M 15.921875 -38.828125 "/></g></g><g style="fill:#9b59b6;fill-opacity:1;"><g transform="translate(374.753974, 79.571977)"><path style="stroke:none" d="M 14.59375 -17.328125 C 14.59375 -12.765625 16.316406 -10.484375 19.765625 -10.484375 C 22.003906 -10.484375 23.867188 -10.921875 25.359375 -11.796875 C 26.054688 -11.796875 26.625 -10.597656 27.0625 -8.203125 C 27.507812 -5.804688 27.734375 -4.175781 27.734375 -3.3125 C 27.734375 -2.457031 27.613281 -1.890625 27.375 -1.609375 C 24.90625 -0.0664062 21.53125 0.703125 17.25 0.703125 C 12.96875 0.703125 9.320312 -0.890625 6.3125 -4.078125 C 3.3125 -7.273438 1.8125 -11.628906 1.8125 -17.140625 C 1.8125 -22.660156 3.289062 -27.117188 6.25 -30.515625 C 9.207031 -33.921875 13.140625 -35.625 18.046875 -35.625 C 22.960938 -35.625 26.375 -34.4375 28.28125 -32.0625 C 28.707031 -31.550781 28.921875 -30.789062 28.921875 -29.78125 C 28.921875 -28.78125 28.734375 -27.5625 28.359375 -26.125 C 27.515625 -23.144531 26.421875 -21.421875 25.078125 -20.953125 C 24.890625 -20.910156 24.617188 -20.890625 24.265625 -20.890625 C 23.921875 -20.890625 23.492188 -21.164062 22.984375 -21.71875 C 21.160156 -23.539062 19.703125 -24.453125 18.609375 -24.453125 C 17.515625 -24.453125 16.570312 -23.890625 15.78125 -22.765625 C 14.988281 -21.648438 14.59375 -19.835938 14.59375 -17.328125 Z M 14.59375 -17.328125 "/></g></g><g style="fill:#9b59b6;fill-opacity:1;"><g transform="translate(404.366101, 79.571977)"><path style="stroke:none" d="M 7.546875 -25.359375 C 6.242188 -27.679688 5.59375 -29.578125 5.59375 -31.046875 C 5.59375 -32.515625 5.988281 -33.457031 6.78125 -33.875 C 9.425781 -35.039062 13.066406 -35.625 17.703125 -35.625 C 22.335938 -35.625 25.609375 -34.539062 27.515625 -32.375 C 29.421875 -30.207031 30.375 -27.003906 30.375 -22.765625 L 30.375 -11.734375 L 32.75 -11.734375 C 33.539062 -11.734375 34.15625 -11.265625 34.59375 -10.328125 C 35.039062 -9.398438 35.265625 -8.117188 35.265625 -6.484375 C 35.265625 -4.859375 34.859375 -3.253906 34.046875 -1.671875 C 33.234375 -0.0859375 32.128906 0.703125 30.734375 0.703125 C 28.210938 0.703125 26.1875 0.0234375 24.65625 -1.328125 C 23.957031 -1.890625 23.421875 -2.566406 23.046875 -3.359375 C 20.898438 -0.648438 17.570312 0.703125 13.0625 0.703125 C 9.664062 0.703125 6.800781 -0.503906 4.46875 -2.921875 C 2.144531 -5.347656 0.984375 -8.21875 0.984375 -11.53125 C 0.984375 -19.113281 5.519531 -22.90625 14.59375 -22.90625 L 18.4375 -22.90625 L 18.4375 -23.609375 C 18.4375 -24.816406 18.238281 -25.59375 17.84375 -25.9375 C 17.445312 -26.289062 16.53125 -26.46875 15.09375 -26.46875 C 13.320312 -26.46875 10.804688 -26.097656 7.546875 -25.359375 Z M 13.125 -12.5 C 13.125 -11.476562 13.40625 -10.695312 13.96875 -10.15625 C 14.53125 -9.625 15.238281 -9.359375 16.09375 -9.359375 C 16.957031 -9.359375 17.738281 -9.707031 18.4375 -10.40625 L 18.4375 -15.78125 L 16.484375 -15.78125 C 14.242188 -15.78125 13.125 -14.6875 13.125 -12.5 Z M 13.125 -12.5 "/></g></g><g style="fill:#9b59b6;fill-opacity:1;"><g transform="translate(440.473348, 79.571977)"><path style="stroke:none" d="M 15.859375 -0.5625 C 15.859375 -0.144531 13.484375 0.0625 8.734375 0.0625 C 5.003906 0.0195312 3.140625 -0.160156 3.140625 -0.484375 L 3.140625 -48.046875 C 3.140625 -48.742188 5.398438 -49.09375 9.921875 -49.09375 C 13.878906 -48.957031 15.859375 -48.726562 15.859375 -48.40625 Z M 15.859375 -0.5625 "/></g></g><g clip-rule="nonzero" clip-path="url(#91383580b3)"><g clip-rule="nonzero" clip-path="url(#68b980b5e2)"><path style=" stroke:none;fill-rule:nonzero;fill:#9b59b6;fill-opacity:1;" d="M 34.480469 28.289062 L 43.546875 28.289062 L 43.546875 37.351562 L 34.480469 37.351562 Z M 34.480469 28.289062 "/></g></g><g clip-rule="nonzero" clip-path="url(#5ee3651442)"><g clip-rule="nonzero" clip-path="url(#7df451676c)"><path style=" stroke:none;fill-rule:nonzero;fill:#9b59b6;fill-opacity:1;" d="M 0.40625 41.839844 L 9.46875 41.839844 L 9.46875 50.90625 L 0.40625 50.90625 Z M 0.40625 41.839844 "/></g></g><g clip-rule="nonzero" clip-path="url(#14eb6dba1e)"><g clip-rule="nonzero" clip-path="url(#03eab956d6)"><path style=" stroke:none;fill-rule:nonzero;fill:#9b59b6;fill-opacity:1;" d="M 19.242188 68.324219 L 28.304688 68.324219 L 28.304688 77.390625 L 19.242188 77.390625 Z M 19.242188 68.324219 "/></g></g><g clip-rule="nonzero" clip-path="url(#e5b1ee2ec4)"><g clip-rule="nonzero" clip-path="url(#eb1da8f8d7)"><path style=" stroke:none;fill-rule:nonzero;fill:#9b59b6;fill-opacity:1;" d="M 0.40625 68.324219 L 9.46875 68.324219 L 9.46875 77.390625 L 0.40625 77.390625 Z M 0.40625 68.324219 "/></g></g><g clip-rule="nonzero" clip-path="url(#150bde2334)"><g clip-rule="nonzero" clip-path="url(#c4b540dfe9)"><path style=" stroke:none;fill-rule:nonzero;fill:#9b59b6;fill-opacity:1;" d="M 19.242188 41.839844 L 28.304688 41.839844 L 28.304688 50.90625 L 19.242188 50.90625 Z M 19.242188 41.839844 "/></g></g><g clip-rule="nonzero" clip-path="url(#8608ccaf91)"><g clip-rule="nonzero" clip-path="url(#4c71bad323)"><path style=" stroke:none;fill-rule:nonzero;fill:#9b59b6;fill-opacity:1;" d="M 0.40625 55.625 L 9.46875 55.625 L 9.46875 64.6875 L 0.40625 64.6875 Z M 0.40625 55.625 "/></g></g><g clip-rule="nonzero" clip-path="url(#887eed680d)"><g clip-rule="nonzero" clip-path="url(#4bb8e3210d)"><path style=" stroke:none;fill-rule:nonzero;fill:#ffdd30;fill-opacity:1;" d="M 19.242188 55.625 L 28.304688 55.625 L 28.304688 64.6875 L 19.242188 64.6875 Z M 19.242188 55.625 "/></g></g></g></svg>