<svg xmlns="http://www.w3.org/2000/svg" xmlns:xlink="http://www.w3.org/1999/xlink" width="44" height="112" viewBox="0 0 44 112" preserveAspectRatio="xMidYMid meet" version="1.2"><defs><clipPath id="59ec0ecf74"><path d="M 0.40625 28.289062 L 9.46875 28.289062 L 9.46875 37.351562 L 0.40625 37.351562 Z M 0.40625 28.289062 "/></clipPath><clipPath id="14b25e2e53"><path d="M 2.648438 28.289062 L 7.222656 28.289062 C 7.820312 28.289062 8.390625 28.523438 8.8125 28.945312 C 9.230469 29.367188 9.46875 29.9375 9.46875 30.53125 L 9.46875 35.105469 C 9.46875 35.703125 9.230469 36.273438 8.8125 36.695312 C 8.390625 37.113281 7.820312 37.351562 7.222656 37.351562 L 2.648438 37.351562 C 2.054688 37.351562 1.484375 37.113281 1.0625 36.695312 C 0.640625 36.273438 0.40625 35.703125 0.40625 35.105469 L 0.40625 30.53125 C 0.40625 29.9375 0.640625 29.367188 1.0625 28.945312 C 1.484375 28.523438 2.054688 28.289062 2.648438 28.289062 Z M 2.648438 28.289062 "/></clipPath><clipPath id="91383580b3"><path d="M 34.480469 28.289062 L 43.546875 28.289062 L 43.546875 37.351562 L 34.480469 37.351562 Z M 34.480469 28.289062 "/></clipPath><clipPath id="68b980b5e2"><path d="M 36.726562 28.289062 L 41.300781 28.289062 C 41.894531 28.289062 42.46875 28.523438 42.886719 28.945312 C 43.308594 29.367188 43.546875 29.9375 43.546875 30.53125 L 43.546875 35.105469 C 43.546875 35.703125 43.308594 36.273438 42.886719 36.695312 C 42.46875 37.113281 41.894531 37.351562 41.300781 37.351562 L 36.726562 37.351562 C 36.132812 37.351562 35.5625 37.113281 35.140625 36.695312 C 34.71875 36.273438 34.480469 35.703125 34.480469 35.105469 L 34.480469 30.53125 C 34.480469 29.9375 34.71875 29.367188 35.140625 28.945312 C 35.5625 28.523438 36.132812 28.289062 36.726562 28.289062 Z M 36.726562 28.289062 "/></clipPath><clipPath id="5ee3651442"><path d="M 0.40625 41.839844 L 9.46875 41.839844 L 9.46875 50.90625 L 0.40625 50.90625 Z M 0.40625 41.839844 "/></clipPath><clipPath id="7df451676c"><path d="M 2.648438 41.839844 L 7.222656 41.839844 C 7.820312 41.839844 8.390625 42.078125 8.8125 42.5 C 9.230469 42.917969 9.46875 43.492188 9.46875 44.085938 L 9.46875 48.660156 C 9.46875 49.253906 9.230469 49.828125 8.8125 50.246094 C 8.390625 50.667969 7.820312 50.90625 7.222656 50.90625 L 2.648438 50.90625 C 2.054688 50.90625 1.484375 50.667969 1.0625 50.246094 C 0.640625 49.828125 0.40625 49.253906 0.40625 48.660156 L 0.40625 44.085938 C 0.40625 43.492188 0.640625 42.917969 1.0625 42.5 C 1.484375 42.078125 2.054688 41.839844 2.648438 41.839844 Z M 2.648438 41.839844 "/></clipPath><clipPath id="14eb6dba1e"><path d="M 19.242188 68.324219 L 28.304688 68.324219 L 28.304688 77.390625 L 19.242188 77.390625 Z M 19.242188 68.324219 "/></clipPath><clipPath id="03eab956d6"><path d="M 21.488281 68.324219 L 26.0625 68.324219 C 26.65625 68.324219 27.226562 68.5625 27.648438 68.984375 C 28.070312 69.402344 28.304688 69.976562 28.304688 70.570312 L 28.304688 75.144531 C 28.304688 75.738281 28.070312 76.308594 27.648438 76.730469 C 27.226562 77.152344 26.65625 77.390625 26.0625 77.390625 L 21.488281 77.390625 C 20.890625 77.390625 20.320312 77.152344 19.898438 76.730469 C 19.480469 76.308594 19.242188 75.738281 19.242188 75.144531 L 19.242188 70.570312 C 19.242188 69.976562 19.480469 69.402344 19.898438 68.984375 C 20.320312 68.5625 20.890625 68.324219 21.488281 68.324219 Z M 21.488281 68.324219 "/></clipPath><clipPath id="e5b1ee2ec4"><path d="M 0.40625 68.324219 L 9.46875 68.324219 L 9.46875 77.390625 L 0.40625 77.390625 Z M 0.40625 68.324219 "/></clipPath><clipPath id="eb1da8f8d7"><path d="M 2.648438 68.324219 L 7.222656 68.324219 C 7.820312 68.324219 8.390625 68.5625 8.8125 68.984375 C 9.230469 69.402344 9.46875 69.976562 9.46875 70.570312 L 9.46875 75.144531 C 9.46875 75.738281 9.230469 76.308594 8.8125 76.730469 C 8.390625 77.152344 7.820312 77.390625 7.222656 77.390625 L 2.648438 77.390625 C 2.054688 77.390625 1.484375 77.152344 1.0625 76.730469 C 0.640625 76.308594 0.40625 75.738281 0.40625 75.144531 L 0.40625 70.570312 C 0.40625 69.976562 0.640625 69.402344 1.0625 68.984375 C 1.484375 68.5625 2.054688 68.324219 2.648438 68.324219 Z M 2.648438 68.324219 "/></clipPath><clipPath id="150bde2334"><path d="M 19.242188 41.839844 L 28.304688 41.839844 L 28.304688 50.90625 L 19.242188 50.90625 Z M 19.242188 41.839844 "/></clipPath><clipPath id="c4b540dfe9"><path d="M 21.488281 41.839844 L 26.0625 41.839844 C 26.65625 41.839844 27.226562 42.078125 27.648438 42.5 C 28.070312 42.917969 28.304688 43.492188 28.304688 44.085938 L 28.304688 48.660156 C 28.304688 49.253906 28.070312 49.828125 27.648438 50.246094 C 27.226562 50.667969 26.65625 50.90625 26.0625 50.90625 L 21.488281 50.90625 C 20.890625 50.90625 20.320312 50.667969 19.898438 50.246094 C 19.480469 49.828125 19.242188 49.253906 19.242188 48.660156 L 19.242188 44.085938 C 19.242188 43.492188 19.480469 42.917969 19.898438 42.5 C 20.320312 42.078125 20.890625 41.839844 21.488281 41.839844 Z M 21.488281 41.839844 "/></clipPath><clipPath id="8608ccaf91"><path d="M 0.40625 55.625 L 9.46875 55.625 L 9.46875 64.6875 L 0.40625 64.6875 Z M 0.40625 55.625 "/></clipPath><clipPath id="4c71bad323"><path d="M 2.648438 55.625 L 7.222656 55.625 C 7.820312 55.625 8.390625 55.863281 8.8125 56.28125 C 9.230469 56.703125 9.46875 57.273438 9.46875 57.871094 L 9.46875 62.445312 C 9.46875 63.039062 9.230469 63.609375 8.8125 64.03125 C 8.390625 64.453125 7.820312 64.6875 7.222656 64.6875 L 2.648438 64.6875 C 2.054688 64.6875 1.484375 64.453125 1.0625 64.03125 C 0.640625 63.609375 0.40625 63.039062 0.40625 62.445312 L 0.40625 57.871094 C 0.40625 57.273438 0.640625 56.703125 1.0625 56.28125 C 1.484375 55.863281 2.054688 55.625 2.648438 55.625 Z M 2.648438 55.625 "/></clipPath><clipPath id="887eed680d"><path d="M 19.242188 55.625 L 28.304688 55.625 L 28.304688 64.6875 L 19.242188 64.6875 Z M 19.242188 55.625 "/></clipPath><clipPath id="4bb8e3210d"><path d="M 21.488281 55.625 L 26.0625 55.625 C 26.65625 55.625 27.226562 55.863281 27.648438 56.28125 C 28.070312 56.703125 28.304688 57.273438 28.304688 57.871094 L 28.304688 62.445312 C 28.304688 63.039062 28.070312 63.609375 27.648438 64.03125 C 27.226562 64.453125 26.65625 64.6875 26.0625 64.6875 L 21.488281 64.6875 C 20.890625 64.6875 20.320312 64.453125 19.898438 64.03125 C 19.480469 63.609375 19.242188 63.039062 19.242188 62.445312 L 19.242188 57.871094 C 19.242188 57.273438 19.480469 56.703125 19.898438 56.28125 C 20.320312 55.863281 20.890625 55.625 21.488281 55.625 Z M 21.488281 55.625 "/></clipPath></defs><g id="7d55b585bf"><g clip-rule="nonzero" clip-path="url(#59ec0ecf74)"><g clip-rule="nonzero" clip-path="url(#14b25e2e53)"><path style=" stroke:none;fill-rule:nonzero;fill:#ffdd30;fill-opacity:1;" d="M 0.40625 28.289062 L 9.46875 28.289062 L 9.46875 37.351562 L 0.40625 37.351562 Z M 0.40625 28.289062 "/></g></g><g clip-rule="nonzero" clip-path="url(#91383580b3)"><g clip-rule="nonzero" clip-path="url(#68b980b5e2)"><path style=" stroke:none;fill-rule:nonzero;fill:#9b59b6;fill-opacity:1;" d="M 34.480469 28.289062 L 43.546875 28.289062 L 43.546875 37.351562 L 34.480469 37.351562 Z M 34.480469 28.289062 "/></g></g><g clip-rule="nonzero" clip-path="url(#5ee3651442)"><g clip-rule="nonzero" clip-path="url(#7df451676c)"><path style=" stroke:none;fill-rule:nonzero;fill:#9b59b6;fill-opacity:1;" d="M 0.40625 41.839844 L 9.46875 41.839844 L 9.46875 50.90625 L 0.40625 50.90625 Z M 0.40625 41.839844 "/></g></g><g clip-rule="nonzero" clip-path="url(#14eb6dba1e)"><g clip-rule="nonzero" clip-path="url(#03eab956d6)"><path style=" stroke:none;fill-rule:nonzero;fill:#9b59b6;fill-opacity:1;" d="M 19.242188 68.324219 L 28.304688 68.324219 L 28.304688 77.390625 L 19.242188 77.390625 Z M 19.242188 68.324219 "/></g></g><g clip-rule="nonzero" clip-path="url(#e5b1ee2ec4)"><g clip-rule="nonzero" clip-path="url(#eb1da8f8d7)"><path style=" stroke:none;fill-rule:nonzero;fill:#9b59b6;fill-opacity:1;" d="M 0.40625 68.324219 L 9.46875 68.324219 L 9.46875 77.390625 L 0.40625 77.390625 Z M 0.40625 68.324219 "/></g></g><g clip-rule="nonzero" clip-path="url(#150bde2334)"><g clip-rule="nonzero" clip-path="url(#c4b540dfe9)"><path style=" stroke:none;fill-rule:nonzero;fill:#9b59b6;fill-opacity:1;" d="M 19.242188 41.839844 L 28.304688 41.839844 L 28.304688 50.90625 L 19.242188 50.90625 Z M 19.242188 41.839844 "/></g></g><g clip-rule="nonzero" clip-path="url(#8608ccaf91)"><g clip-rule="nonzero" clip-path="url(#4c71bad323)"><path style=" stroke:none;fill-rule:nonzero;fill:#9b59b6;fill-opacity:1;" d="M 0.40625 55.625 L 9.46875 55.625 L 9.46875 64.6875 L 0.40625 64.6875 Z M 0.40625 55.625 "/></g></g><g clip-rule="nonzero" clip-path="url(#887eed680d)"><g clip-rule="nonzero" clip-path="url(#4bb8e3210d)"><path style=" stroke:none;fill-rule:nonzero;fill:#ffdd30;fill-opacity:1;" d="M 19.242188 55.625 L 28.304688 55.625 L 28.304688 64.6875 L 19.242188 64.6875 Z M 19.242188 55.625 "/></g></g></g></svg>
